<?xml version="1.0" encoding="utf-8"?>
 <!DOCTYPE svg PUBLIC "-//W3C//DTD SVG 20010904//EN" "http://www.w3.org/TR/2001/REC-SVG-20010904/DTD/svg10.dtd">
<svg class="Qr-item-svg" width="100%" height="100%" viewBox="-6.6 -6.6 46.2 46.2" fill="white" xmlns="http://www.w3.org/2000/svg" xmlns:xlink="http://www.w3.org/1999/xlink" style="background-color: white;"><circle cx="12.5" cy="0.5" r="0.3580257630315501" fill="#00d084"></circle><circle cx="14.5" cy="1" r="0.48683449074074076" fill="#FFFFFF" stroke="#00d084" stroke-width="0.38653155006858714"></circle><circle cx="16.5" cy="1" r="0.49183020404663924" fill="#FFFFFF" stroke="#00d084" stroke-width="0.3986351165980796"></circle><circle cx="19.5" cy="1" r="0.5184357853223595" fill="#FFFFFF" stroke="#00d084" stroke-width="0.36544427297668036"></circle><circle r="0.5088145147462277" fill="#FFFFFF" cx="21.5" cy="1" stroke="#00d084" stroke-width="0.37549417009602193"></circle><circle cx="24.5" cy="0.5" r="0.4983056841563786" fill="#00d084"></circle><circle fill="#FFFFFF" cx="11" cy="1.5" r="0.4818143432784636" stroke-width="0.39261831275720166" stroke="#00d084"></circle><circle r="0.5017931241426612" fill="#FFFFFF" cx="23.5" cy="2" stroke="#00d084" stroke-width="0.3707309670781893"></circle><circle cx="11.5" cy="2.5" r="0.2842013888888889" fill="#00d084"></circle><circle r="1.5" fill="#00d084" cx="3.5" cy="3.5"></circle><circle r="3" fill="none" cx="3.5" cy="3.5" stroke-width="1" stroke="#00d084"></circle><circle cx="13" cy="3.5" r="0.47722072187928666" fill="#FFFFFF" stroke="#00d084" stroke-width="0.3724002057613169"></circle><circle cx="18.5" cy="3.5" r="0.4028517232510288" fill="#00d084"></circle><circle cx="20.5" cy="3.5" r="0.3799907836076818" fill="#00d084"></circle><circle r="0.516261145404664" fill="#FFFFFF" cx="23.5" cy="4" stroke="#00d084" stroke-width="0.384383573388203"></circle><circle cx="29.5" cy="3.5" r="1.5" fill="#00d084"></circle><circle cx="29.5" cy="3.5" r="3" fill="none" stroke="#00d084" stroke-width="1"></circle><circle r="0.4869639489026063" fill="#FFFFFF" cx="11" cy="4.5" stroke="#00d084" stroke-width="0.389803840877915"></circle><circle cx="13.5" cy="5" r="0.48393990054869684" fill="#FFFFFF" stroke="#00d084" stroke-width="0.36846484910836763"></circle><circle cx="24.5" cy="4.5" r="0.33541773834019206" fill="#00d084"></circle><circle cx="8.5" cy="6" r="0.47964291838134426" fill="#FFFFFF" stroke="#00d084" stroke-width="0.39547993827160494"></circle><circle r="0.477383616255144" fill="#FFFFFF" cx="14.5" cy="6" stroke="#00d084" stroke-width="0.38446467764060355"></circle><circle r="0.5180244770233197" fill="#FFFFFF" cx="16" cy="5.5" stroke="#00d084" stroke-width="0.3849814814814815"></circle><circle r="0.4778090706447188" fill="#FFFFFF" cx="18.5" cy="6" stroke="#00d084" stroke-width="0.3901856995884774"></circle><circle r="0.5124779235253772" fill="#FFFFFF" cx="20.5" cy="6" stroke="#00d084" stroke-width="0.39418621399176956"></circle><circle r="0.4930364797668038" fill="#FFFFFF" cx="22" cy="5.5" stroke="#00d084" stroke-width="0.3742914951989026"></circle><circle r="0.3353105709876543" fill="#00d084" cx="23.5" cy="5.5"></circle><circle cx="10.5" cy="6.5" r="0.2764510459533608" fill="#00d084"></circle><circle cx="16.5" cy="6.5" r="0.3240087019890261" fill="#00d084"></circle><circle r="0.40776748971193416" fill="#00d084" cx="22.5" cy="6.5"></circle><circle r="0.5146504200960219" fill="#FFFFFF" cx="24.5" cy="7" stroke="#00d084" stroke-width="0.39929869684499314"></circle><circle cx="12.5" cy="8" r="0.4893557098765432" fill="#FFFFFF" stroke="#00d084" stroke-width="0.38641889574759947"></circle><circle r="0.5097271519204389" fill="#FFFFFF" cx="17.5" cy="8" stroke="#00d084" stroke-width="0.3662448559670782"></circle><circle cx="18.5" cy="7.5" r="0.32411372599451305" fill="#00d084"></circle><circle r="0.524153377914952" fill="#FFFFFF" cx="2" cy="8.5" stroke="#00d084" stroke-width="0.3889072359396434"></circle><circle cx="6.5" cy="8.5" r="0.4665895061728395" fill="#00d084"></circle><circle cx="9.5" cy="8.5" r="0.3018272033607682" fill="#00d084"></circle><circle r="0.48461183984910833" fill="#FFFFFF" cx="23" cy="8.5" stroke="#00d084" stroke-width="0.3682307956104252"></circle><circle r="0.49311342592592594" fill="#FFFFFF" cx="30" cy="8.5" stroke="#00d084" stroke-width="0.38683247599451304"></circle><circle cx="31.5" cy="9" r="0.4966400891632373" fill="#FFFFFF" stroke="#00d084" stroke-width="0.38802829218107"></circle><circle cx="0.5" cy="10" r="0.4994980281207133" fill="#FFFFFF" stroke="#00d084" stroke-width="0.37338048696844994"></circle><circle r="0.5075287208504801" fill="#FFFFFF" cx="2.5" cy="10" stroke="#00d084" stroke-width="0.36815895061728393"></circle><circle r="0.4935656721536351" fill="#FFFFFF" cx="4.5" cy="10" stroke="#00d084" stroke-width="0.391906207133059"></circle><circle cx="14" cy="9.5" r="0.484136445473251" fill="#FFFFFF" stroke="#00d084" stroke-width="0.39091632373113855"></circle><circle r="0.509000128600823" fill="#FFFFFF" cx="24" cy="9.5" stroke="#00d084" stroke-width="0.3966097393689986"></circle><circle r="0.47743677126200273" fill="#FFFFFF" stroke="#00d084" stroke-width="0.3799804526748971" cx="7" cy="10.5"></circle><circle r="0.3617659036351166" fill="#00d084" cx="12.5" cy="10.5"></circle><circle cx="24.5" cy="10.5" r="0.2557998971193416" fill="#00d084"></circle><circle r="0.5095745456104253" fill="#FFFFFF" cx="31" cy="10.5" stroke="#00d084" stroke-width="0.3907318244170096"></circle><circle r="0.28043767146776405" fill="#00d084" cx="1.5" cy="11.5"></circle><circle r="0.4904627486282579" fill="#FFFFFF" cx="17" cy="11.5" stroke="#00d084" stroke-width="0.38367283950617287"></circle><circle cx="23.5" cy="11.5" r="0.34845893347050755" fill="#00d084"></circle><circle cx="0.5" cy="12.5" r="0.34748049554183813" fill="#00d084"></circle><circle cx="2.5" cy="13" r="0.5057675325788752" fill="#FFFFFF" stroke="#00d084" stroke-width="0.38350925925925927"></circle><circle cx="4" cy="12.5" r="0.5100915209190672" fill="#FFFFFF" stroke="#00d084" stroke-width="0.39744170096021947"></circle><circle cx="18.5" cy="13" r="0.5169056498628258" fill="#FFFFFF" stroke="#00d084" stroke-width="0.3800123456790124"></circle><circle r="0.2798289609053498" fill="#00d084" cx="26.5" cy="12.5"></circle><circle r="0.5014797668038409" fill="#FFFFFF" cx="2" cy="13.5" stroke="#00d084" stroke-width="0.39910168038408783"></circle><circle r="0.5168962191358025" fill="#FFFFFF" cx="20.5" cy="14" stroke="#00d084" stroke-width="0.38984019204389575"></circle><circle r="0.3479102366255144" fill="#00d084" cx="22.5" cy="13.5"></circle><circle cx="24.5" cy="13.5" r="0.4600801611796982" fill="#00d084"></circle><circle r="0.4769450874485596" fill="#FFFFFF" cx="29.5" cy="14" stroke="#00d084" stroke-width="0.36145953360768174"></circle><circle fill="#FFFFFF" cx="4.5" cy="15" r="0.49111411179698217" stroke="#00d084" stroke-width="0.39033590534979423"></circle><circle cx="11.5" cy="15" r="0.5119020061728395" fill="#FFFFFF" stroke-width="0.38890037722908094" stroke="#00d084"></circle><circle r="0.503471793552812" fill="#FFFFFF" cx="17.5" cy="15" stroke="#00d084" stroke-width="0.38137431412894374"></circle><circle cx="18.5" cy="14.5" r="0.3184284979423868" fill="#00d084"></circle><circle r="0.4855765603566529" fill="#FFFFFF" cx="21.5" cy="15" stroke="#00d084" stroke-width="0.38652314814814814"></circle><circle r="0.47595250342935524" fill="#FFFFFF" cx="3.5" cy="16" stroke="#00d084" stroke-width="0.37584036351165984"></circle><circle cx="5.5" cy="16" r="0.4995923353909465" fill="#FFFFFF" stroke="#00d084" stroke-width="0.3951020233196159"></circle><circle cx="15.5" cy="15.5" r="0.42548118141289437" fill="#00d084"></circle><circle cx="24.5" cy="16" r="0.4911861282578875" fill="#FFFFFF" stroke="#00d084" stroke-width="0.366195987654321"></circle><circle r="0.5081110682441701" fill="#FFFFFF" stroke="#00d084" stroke-width="0.38128943758573386" cx="26.5" cy="16"></circle><circle cx="29.5" cy="16" r="0.487494427297668" fill="#FFFFFF" stroke="#00d084" stroke-width="0.3769874828532236"></circle><circle cx="31" cy="15.5" r="0.48628858024691357" fill="#FFFFFF" stroke="#00d084" stroke-width="0.3645207475994513"></circle><circle cx="6.5" cy="16.5" r="0.46732788923182444" fill="#00d084"></circle><circle cx="10.5" cy="17" r="0.48879050925925926" fill="#FFFFFF" stroke="#00d084" stroke-width="0.3808741426611797"></circle><circle cx="12" cy="16.5" r="0.5235671724965707" fill="#FFFFFF" stroke="#00d084" stroke-width="0.38706995884773665"></circle><circle cx="13.5" cy="16.5" r="0.41337555727023323" fill="#00d084"></circle><circle cx="20.5" cy="17" r="0.4886848422496571" fill="#FFFFFF" stroke="#00d084" stroke-width="0.39462705761316874"></circle><circle cx="21.5" cy="16.5" r="0.46697316529492455" fill="#00d084"></circle><circle cx="24" cy="16.5" r="0.507312242798354" fill="#FFFFFF" stroke="#00d084" stroke-width="0.39738906035665295"></circle><circle cx="26" cy="16.5" r="0.4801290294924554" fill="#FFFFFF" stroke="#00d084" stroke-width="0.3725354938271605"></circle><circle cx="0.5" cy="18" r="0.5237030606995885" fill="#FFFFFF" stroke="#00d084" stroke-width="0.3981868998628258"></circle><circle cx="7.5" cy="18" r="0.48405156893004114" fill="#FFFFFF" stroke="#00d084" stroke-width="0.3993669410150892"></circle><circle r="0.5153729423868313" fill="#FFFFFF" stroke="#00d084" stroke-width="0.3754425582990398" cx="14.5" cy="18"></circle><circle cx="17" cy="17.5" r="0.47964870541838134" fill="#FFFFFF" stroke="#00d084" stroke-width="0.39854012345679013"></circle><circle r="0.5137388545953361" fill="#FFFFFF" cx="20" cy="17.5" stroke="#00d084" stroke-width="0.37652211934156377"></circle><circle cx="22.5" cy="17.5" r="0.36356631515775034" fill="#00d084"></circle><circle cx="26.5" cy="18" r="0.49864819101508917" fill="#FFFFFF" stroke="#00d084" stroke-width="0.3699125514403292"></circle><circle cx="29" cy="17.5" r="0.5072753772290809" fill="#FFFFFF" stroke="#00d084" stroke-width="0.3630797325102881"></circle><circle r="0.3706007801783265" fill="#00d084" cx="31.5" cy="17.5"></circle><circle r="0.45009109224965704" fill="#00d084" cx="1.5" cy="18.5"></circle><circle cx="5.5" cy="19" r="0.48709512174211245" fill="#FFFFFF" stroke="#00d084" stroke-width="0.3658347050754458"></circle><circle cx="7" cy="18.5" r="0.5213059413580248" fill="#FFFFFF" stroke="#00d084" stroke-width="0.36170130315500687"></circle><circle r="0.5153418638545954" fill="#FFFFFF" stroke="#00d084" stroke-width="0.3841934156378601" cx="8.5" cy="19"></circle><circle r="0.5193424211248285" fill="#FFFFFF" cx="14" cy="18.5" stroke="#00d084" stroke-width="0.3915399519890261"></circle><circle cx="17.5" cy="18.5" r="0.4856310013717421" fill="#00d084"></circle><circle cx="24.5" cy="19" r="0.5065181327160494" fill="#FFFFFF" stroke="#00d084" stroke-width="0.36857475994513034"></circle><circle cx="30.5" cy="18.5" r="0.25281528635116596" fill="#00d084"></circle><circle r="0.42417159636488344" fill="#00d084" cx="3.5" cy="19.5"></circle><circle cx="9.5" cy="19.5" r="0.3257180212620028" fill="#00d084"></circle><circle r="0.3288944615912208" fill="#00d084" cx="19.5" cy="19.5"></circle><circle cx="21.5" cy="19.5" r="0.4262602880658436" fill="#00d084"></circle><circle fill="#FFFFFF" cx="23.5" cy="20" r="0.4969577331961591" stroke="#00d084" stroke-width="0.39155401234567905"></circle><circle fill="#00d084" cx="32.5" cy="19.5" r="0.3563614540466392"></circle><circle r="0.3207143775720165" fill="#00d084" cx="0.5" cy="20.5"></circle><circle cx="2.5" cy="20.5" r="0.3016964591906722" fill="#00d084"></circle><circle r="0.482718835733882" fill="#FFFFFF" stroke="#00d084" stroke-width="0.3627657750342935" cx="4.5" cy="21"></circle><circle cx="6" cy="20.5" r="0.4911580504115226" fill="#FFFFFF" stroke="#00d084" stroke-width="0.3972743484224966"></circle><circle cx="18" cy="20.5" r="0.49044988854595334" fill="#FFFFFF" stroke="#00d084" stroke-width="0.3679835390946502"></circle><circle cx="20.5" cy="20.5" r="0.41552426268861453" fill="#00d084"></circle><circle r="0.47775913065843617" fill="#FFFFFF" cx="31" cy="20.5" stroke="#00d084" stroke-width="0.37859224965706445"></circle><circle r="0.43846557784636486" fill="#00d084" cx="1.5" cy="21.5"></circle><circle cx="8.5" cy="21.5" r="0.4538537379972565" fill="#00d084"></circle><circle r="0.49924125514403295" fill="#00d084" cx="21.5" cy="21.5"></circle><circle cx="26" cy="21.5" r="0.49728823731138544" fill="#FFFFFF" stroke="#00d084" stroke-width="0.3707690329218107"></circle><circle cx="28" cy="21.5" r="0.48903506515775036" fill="#FFFFFF" stroke="#00d084" stroke-width="0.3605656721536351"></circle><circle cx="32.5" cy="21.5" r="0.4992176783264746" fill="#00d084"></circle><circle r="0.48029128086419753" fill="#FFFFFF" cx="2.5" cy="23" stroke="#00d084" stroke-width="0.37981550068587105"></circle><circle cx="3.5" cy="22.5" r="0.4526545353223594" fill="#00d084"></circle><circle cx="6" cy="22.5" r="0.5135326646090536" fill="#FFFFFF" stroke="#00d084" stroke-width="0.3623036694101509"></circle><circle cx="12" cy="22.5" r="0.49523191015089163" fill="#FFFFFF" stroke="#00d084" stroke-width="0.39004989711934157"></circle><circle r="0.5104563185871056" fill="#FFFFFF" cx="15" cy="22.5" stroke="#00d084" stroke-width="0.3918281893004115"></circle><circle r="0.4988912465706447" fill="#FFFFFF" cx="19" cy="22.5" stroke="#00d084" stroke-width="0.378440329218107"></circle><circle r="0.5207593878600824" fill="#FFFFFF" cx="22.5" cy="23" stroke="#00d084" stroke-width="0.3749060356652949"></circle><circle r="0.30931605795610423" fill="#00d084" cx="23.5" cy="22.5"></circle><circle r="0.5131631515775035" fill="#FFFFFF" cx="28.5" cy="23" stroke="#00d084" stroke-width="0.37283110425240057"></circle><circle cx="30.5" cy="23" r="0.5081715106310014" fill="#FFFFFF" stroke="#00d084" stroke-width="0.39102914951989026"></circle><circle r="0.47808491941015085" fill="#FFFFFF" cx="1" cy="23.5" stroke="#00d084" stroke-width="0.36272119341563785"></circle><circle cx="9" cy="23.5" r="0.4841688100137174" fill="#FFFFFF" stroke="#00d084" stroke-width="0.3917343964334705"></circle><circle cx="10.5" cy="24" r="0.4875925925925926" fill="#FFFFFF" stroke="#00d084" stroke-width="0.38741580932784636"></circle><circle cx="13.5" cy="24" r="0.51897719478738" fill="#FFFFFF" stroke="#00d084" stroke-width="0.3939638203017833"></circle><circle cx="17.5" cy="24" r="0.4841244427297668" fill="#FFFFFF" stroke="#00d084" stroke-width="0.3816063100137174"></circle><circle cx="1.5" cy="24.5" r="0.4243280606995885" fill="#00d084"></circle><circle cx="4" cy="24.5" r="0.5206245713305898" fill="#FFFFFF" stroke="#00d084" stroke-width="0.37176320301783267"></circle><circle cx="6" cy="24.5" r="0.4975051440329218" fill="#FFFFFF" stroke="#00d084" stroke-width="0.38472856652949244"></circle><circle cx="7.5" cy="24.5" r="0.3053133573388203" fill="#00d084"></circle><circle r="0.5239722650891633" fill="#FFFFFF" cx="12" cy="24.5" stroke="#00d084" stroke-width="0.3612829218106996"></circle><circle cx="15" cy="24.5" r="0.5011357596021948" fill="#FFFFFF" stroke="#00d084" stroke-width="0.39941289437585736"></circle><circle cx="20" cy="24.5" r="0.4996836419753086" fill="#FFFFFF" stroke="#00d084" stroke-width="0.39449605624142664"></circle><circle r="0.5173000257201646" fill="#FFFFFF" stroke="#00d084" stroke-width="0.39448422496570645" cx="24" cy="24.5"></circle><circle cx="26" cy="24.5" r="0.5077865655006859" fill="#FFFFFF" stroke="#00d084" stroke-width="0.36672942386831275"></circle><circle r="0.4692611882716049" fill="#00d084" cx="31.5" cy="24.5"></circle><circle cx="12.5" cy="25.5" r="0.388826731824417" fill="#00d084"></circle><circle r="0.5217024605624143" fill="#FFFFFF" stroke="#00d084" stroke-width="0.39212139917695477" cx="22.5" cy="26"></circle><circle r="0.4916722393689986" fill="#FFFFFF" stroke="#00d084" stroke-width="0.38325154320987653" cx="24.5" cy="26"></circle><circle r="0.3005497685185185" fill="#00d084" cx="26.5" cy="26.5"></circle><circle cx="28.5" cy="27" r="0.5182454561042524" fill="#FFFFFF" stroke="#00d084" stroke-width="0.3892426268861454"></circle><circle cx="30.5" cy="27" r="0.5111992026748972" fill="#FFFFFF" stroke="#00d084" stroke-width="0.39948010973936904"></circle><circle cx="12.5" cy="28" r="0.5001455332647462" fill="#FFFFFF" stroke="#00d084" stroke-width="0.39133676268861456"></circle><circle cx="14" cy="27.5" r="0.5146032664609054" fill="#FFFFFF" stroke="#00d084" stroke-width="0.36843792866941016"></circle><circle r="0.501389103223594" fill="#FFFFFF" stroke="#00d084" stroke-width="0.36449211248285324" cx="18.5" cy="28"></circle><circle r="0.5132630315500686" fill="#FFFFFF" stroke="#00d084" stroke-width="0.39601800411522636" cx="23" cy="27.5"></circle><circle r="0.48988640260631" fill="#FFFFFF" cx="24.5" cy="28" stroke="#00d084" stroke-width="0.37519735939643345"></circle><circle cx="30" cy="27.5" r="0.5238657407407408" fill="#FFFFFF" stroke="#00d084" stroke-width="0.3686565500685871"></circle><circle r="0.478781292866941" fill="#FFFFFF" cx="31.5" cy="28" stroke="#00d084" stroke-width="0.3842968106995885"></circle><circle cx="14.5" cy="29" r="0.4938365912208505" fill="#FFFFFF" stroke="#00d084" stroke-width="0.3677608024691358"></circle><circle r="0.5241923868312758" fill="#FFFFFF" cx="17.5" cy="29" stroke="#00d084" stroke-width="0.39916478052126203"></circle><circle r="0.25047796639231823" fill="#00d084" cx="19.5" cy="28.5"></circle><circle cx="27" cy="28.5" r="0.4930088305898491" fill="#FFFFFF" stroke="#00d084" stroke-width="0.36855949931412896"></circle><circle r="0.37722479423868316" fill="#00d084" cx="28.5" cy="28.5"></circle><circle cx="32.5" cy="28.5" r="0.39123263888888893" fill="#00d084"></circle><circle r="1.5" fill="#00d084" cx="3.5" cy="29.5"></circle><circle cx="3.5" cy="29.5" r="3" fill="none" stroke="#00d084" stroke-width="1"></circle><circle r="0.5065209190672154" fill="#FFFFFF" cx="9.5" cy="30" stroke="#00d084" stroke-width="0.3893074417009602"></circle><circle cx="11" cy="29.5" r="0.521210133744856" fill="#FFFFFF" stroke="#00d084" stroke-width="0.36881601508916323"></circle><circle cx="13" cy="29.5" r="0.482761488340192" fill="#FFFFFF" stroke="#00d084" stroke-width="0.3601352880658436"></circle><circle r="0.49467099622770916" fill="#FFFFFF" stroke="#00d084" stroke-width="0.37640157750342934" cx="20.5" cy="30"></circle><circle cx="22.5" cy="29.5" r="0.4317579732510288" fill="#00d084"></circle><circle r="0.5176253858024692" fill="#FFFFFF" cx="27.5" cy="30" stroke="#00d084" stroke-width="0.37542352537722906"></circle><circle r="0.4939173954046639" fill="#FFFFFF" stroke="#00d084" stroke-width="0.36900857338820303" cx="30.5" cy="30"></circle><circle r="0.48246206275720166" fill="#00d084" cx="31.5" cy="29.5"></circle><circle cx="16" cy="30.5" r="0.4778375771604938" fill="#FFFFFF" stroke="#00d084" stroke-width="0.3622969821673525"></circle><circle cx="18.5" cy="31" r="0.5027456275720165" fill="#FFFFFF" stroke="#00d084" stroke-width="0.3781184842249657"></circle><circle cx="21.5" cy="30.5" r="0.4432452417695473" fill="#00d084"></circle><circle cx="32.5" cy="30.5" r="0.38723529663923184" fill="#00d084"></circle><circle r="0.4960766032235939" fill="#00d084" cx="13.5" cy="31.5"></circle><circle cx="17.5" cy="32" r="0.501639017489712" fill="#FFFFFF" stroke="#00d084" stroke-width="0.3840541838134431"></circle><circle r="0.3526030949931413" fill="#00d084" cx="19.5" cy="31.5"></circle><circle r="0.4893329903978052" fill="#FFFFFF" stroke="#00d084" stroke-width="0.3773677983539095" cx="22.5" cy="32"></circle><circle cx="24" cy="31.5" r="0.5079316700960219" fill="#FFFFFF" stroke="#00d084" stroke-width="0.36642369684499315"></circle><circle cx="10" cy="32.5" r="0.5233254029492456" fill="#FFFFFF" stroke="#00d084" stroke-width="0.38811111111111113"></circle><circle cx="12.5" cy="32.5" r="0.2697166495198903" fill="#00d084"></circle><circle cx="22" cy="32.5" r="0.4937988683127572" fill="#FFFFFF" stroke="#00d084" stroke-width="0.3670721879286694"></circle><circle cx="24.5" cy="32.5" r="0.4505947788065844" fill="#00d084"></circle><circle cx="29" cy="32.5" r="0.5240785751028807" fill="#FFFFFF" stroke="#00d084" stroke-width="0.3923144718792867"></circle><circle r="0.39192386831275716" fill="#00d084" cx="31.5" cy="32.5"></circle><circle r="1" fill="#FFFFFF" stroke="#00d084" stroke-width="0.5134097222222223" cx="17.5" cy="1.5"></circle><circle cx="9" cy="2" r="0.7071067811865476" fill="#FFFFFF" stroke="#00d084" stroke-width="0.37751851851851853"></circle><circle fill="#FFFFFF" cx="16" cy="2" r="0.7071067811865476" stroke="#00d084" stroke-width="0.33655208333333336"></circle><circle r="0.7071067811865476" fill="#FFFFFF" cx="21" cy="2" stroke="#00d084" stroke-width="0.5985289351851852"></circle><circle cx="9" cy="3" r="0.7071067811865476" fill="#FFFFFF" stroke="#00d084" stroke-width="0.4459490740740741"></circle><circle fill="#FFFFFF" cx="17" cy="3" r="0.7071067811865476" stroke="#00d084" stroke-width="0.45156944444444447"></circle><circle r="1" fill="#FFFFFF" cx="22.5" cy="4.5" stroke="#00d084" stroke-width="0.43487731481481484"></circle><circle cx="13.5" cy="6.5" r="1" fill="#FFFFFF" stroke="#00d084" stroke-width="0.45646643518518515"></circle><circle cx="24.5" cy="8.5" r="1" fill="#FFFFFF" stroke="#00d084" stroke-width="0.36666203703703704"></circle><circle cx="15" cy="9" r="0.7071067811865476" fill="#FFFFFF" stroke="#00d084" stroke-width="0.48017245370370365"></circle><circle r="1" fill="#FFFFFF" cx="27.5" cy="9.5" stroke="#00d084" stroke-width="0.3418240740740741"></circle><circle cx="27.5" cy="9.5" r="0.3821941443758573" fill="#00d084"></circle><circle cx="3.5" cy="10.5" r="1" fill="#FFFFFF" stroke="#00d084" stroke-width="0.5778344907407407"></circle><circle r="1" fill="#FFFFFF" cx="19.5" cy="10.5" stroke="#00d084" stroke-width="0.4929803240740741"></circle><circle cx="19.5" cy="10.5" r="0.39541752400548696" fill="#00d084"></circle><circle r="0.7071067811865476" fill="#FFFFFF" cx="20" cy="10" stroke="#00d084" stroke-width="0.5891504629629629"></circle><circle cx="28" cy="10" r="0.7071067811865476" fill="#FFFFFF" stroke="#00d084" stroke-width="0.40214814814814814"></circle><circle cx="32" cy="10" r="0.7071067811865476" fill="#FFFFFF" stroke="#00d084" stroke-width="0.3856261574074074"></circle><circle cx="8" cy="11" r="0.7071067811865476" fill="#FFFFFF" stroke="#00d084" stroke-width="0.3748414351851852"></circle><circle r="0.7071067811865476" fill="#FFFFFF" cx="9" cy="11" stroke="#00d084" stroke-width="0.5772453703703704"></circle><circle r="0.7071067811865476" fill="#FFFFFF" cx="19" cy="11" stroke="#00d084" stroke-width="0.5257719907407408"></circle><circle cx="20" cy="11" r="0.7071067811865476" fill="#FFFFFF" stroke="#00d084" stroke-width="0.3823425925925926"></circle><circle cx="21" cy="11" r="0.7071067811865476" fill="#FFFFFF" stroke="#00d084" stroke-width="0.41551041666666666"></circle><circle cx="22" cy="11" r="0.7071067811865476" fill="#FFFFFF" stroke="#00d084" stroke-width="0.5694421296296296"></circle><circle cx="28" cy="11" r="0.7071067811865476" fill="#FFFFFF" stroke="#00d084" stroke-width="0.5783530092592593"></circle><circle r="0.7071067811865476" fill="#FFFFFF" cx="29" cy="11" stroke="#00d084" stroke-width="0.46839583333333334"></circle><circle cx="9" cy="12" r="0.7071067811865476" fill="#FFFFFF" stroke="#00d084" stroke-width="0.5662384259259259"></circle><circle cx="11.5" cy="12.5" r="1" fill="#FFFFFF" stroke="#00d084" stroke-width="0.38065625000000003"></circle><circle cx="22" cy="12" r="0.7071067811865476" fill="#FFFFFF" stroke="#00d084" stroke-width="0.5293483796296297"></circle><circle cx="6.5" cy="13.5" r="1" fill="#FFFFFF" stroke="#00d084" stroke-width="0.42256597222222225"></circle><circle cx="9" cy="13" r="0.7071067811865476" fill="#FFFFFF" stroke="#00d084" stroke-width="0.5965300925925926"></circle><circle r="0.7071067811865476" fill="#FFFFFF" cx="13" cy="13" stroke="#00d084" stroke-width="0.5061296296296296"></circle><circle cx="14" cy="13" r="0.7071067811865476" fill="#FFFFFF" stroke="#00d084" stroke-width="0.47874189814814816"></circle><circle r="0.7071067811865476" fill="#FFFFFF" cx="15" cy="13" stroke="#00d084" stroke-width="0.3554513888888889"></circle><circle cx="8" cy="14" r="0.7071067811865476" fill="#FFFFFF" stroke="#00d084" stroke-width="0.5380231481481481"></circle><circle cx="9" cy="14" r="0.7071067811865476" fill="#FFFFFF" stroke="#00d084" stroke-width="0.3903576388888889"></circle><circle cx="15" cy="14" r="0.7071067811865476" fill="#FFFFFF" stroke="#00d084" stroke-width="0.4814849537037037"></circle><circle cx="16" cy="14" r="0.7071067811865476" fill="#FFFFFF" stroke="#00d084" stroke-width="0.4886111111111111"></circle><circle cx="27.5" cy="14.5" r="1" fill="#FFFFFF" stroke="#00d084" stroke-width="0.350375"></circle><circle cx="32" cy="15" r="0.7071067811865476" fill="#FFFFFF" stroke="#00d084" stroke-width="0.38717824074074075"></circle><circle cx="2.5" cy="16.5" r="1" fill="#FFFFFF" stroke="#00d084" stroke-width="0.43721064814814814"></circle><circle r="0.7071067811865476" fill="#FFFFFF" cx="12" cy="19" stroke="#00d084" stroke-width="0.4659340277777778"></circle><circle cx="26.5" cy="19.5" r="1" fill="#FFFFFF" stroke="#00d084" stroke-width="0.3454918981481482"></circle><circle cx="26.5" cy="19.5" r="0.4696309156378601" fill="#00d084"></circle><circle r="0.7071067811865476" fill="#FFFFFF" cx="27" cy="19" stroke="#00d084" stroke-width="0.5195787037037036"></circle><circle cx="12" cy="20" r="0.7071067811865476" fill="#FFFFFF" stroke="#00d084" stroke-width="0.3485972222222222"></circle><circle cx="15.5" cy="20.5" r="1" fill="#FFFFFF" stroke="#00d084" stroke-width="0.5347407407407407"></circle><circle r="0.28767253943758575" fill="#00d084" cx="15.5" cy="20.5"></circle><circle r="0.7071067811865476" fill="#FFFFFF" cx="15" cy="20" stroke="#00d084" stroke-width="0.5407291666666667"></circle><circle r="0.7071067811865476" fill="#FFFFFF" cx="16" cy="21" stroke="#00d084" stroke-width="0.39206712962962964"></circle><circle cx="29" cy="21" r="0.7071067811865476" fill="#FFFFFF" stroke="#00d084" stroke-width="0.4050648148148148"></circle><circle r="0.7071067811865476" fill="#FFFFFF" cx="16" cy="22" stroke="#00d084" stroke-width="0.5200451388888889"></circle><circle cx="16" cy="23" r="0.7071067811865476" fill="#FFFFFF" stroke="#00d084" stroke-width="0.3464803240740741"></circle><circle cx="21.5" cy="24.5" r="1" fill="#FFFFFF" stroke="#00d084" stroke-width="0.4818043981481481"></circle><circle cx="27" cy="24" r="0.7071067811865476" fill="#FFFFFF" stroke="#00d084" stroke-width="0.5759074074074074"></circle><circle r="0.7071067811865476" fill="#FFFFFF" cx="28" cy="24" stroke="#00d084" stroke-width="0.40185300925925926"></circle><circle cx="17.5" cy="25.5" r="1" fill="#FFFFFF" stroke="#00d084" stroke-width="0.5175381944444444"></circle><circle r="0.7071067811865476" fill="#FFFFFF" cx="29" cy="25" stroke="#00d084" stroke-width="0.5920636574074074"></circle><circle cx="16" cy="26" r="0.7071067811865476" fill="#FFFFFF" stroke="#00d084" stroke-width="0.589644675925926"></circle><circle cx="10.5" cy="27.5" r="1" fill="#FFFFFF" stroke="#00d084" stroke-width="0.5339247685185184"></circle><circle r="0.26048954046639233" fill="#00d084" cx="10.5" cy="27.5"></circle><circle cx="10" cy="27" r="0.7071067811865476" fill="#FFFFFF" stroke="#00d084" stroke-width="0.4553298611111111"></circle><circle cx="11" cy="27" r="0.7071067811865476" fill="#FFFFFF" stroke="#00d084" stroke-width="0.49009490740740735"></circle><circle r="0.7071067811865476" fill="#FFFFFF" stroke="#00d084" stroke-width="0.5206400462962963" cx="15" cy="27"></circle><circle cx="16.5" cy="29.5" r="1" fill="#FFFFFF" stroke="#00d084" stroke-width="0.5438171296296296"></circle><circle r="0.7071067811865476" fill="#FFFFFF" cx="25" cy="29" stroke="#00d084" stroke-width="0.4216493055555556"></circle><circle cx="29.5" cy="30.5" r="1" fill="#FFFFFF" stroke="#00d084" stroke-width="0.4829710648148148"></circle><circle r="0.7071067811865476" fill="#FFFFFF" stroke="#00d084" stroke-width="0.3430196759259259" cx="9" cy="31"></circle><circle cx="17.5" cy="1.5" r="0.6036217206790123" fill="#FFFFFF" stroke="#00d084" stroke-width="0.15653703703703703"></circle><circle fill="#FFFFFF" cx="13.5" cy="2.5" r="0.43817997685185184" stroke="#00d084" stroke-width="0.15760956790123457"></circle><circle cx="19.5" cy="3.5" r="0.5746170910493827" fill="#FFFFFF" stroke="#00d084" stroke-width="0.15888888888888889"></circle><circle cx="17.5" cy="4.5" r="0.4927006172839506" fill="#FFFFFF" stroke="#00d084" stroke-width="0.2947908950617284"></circle><circle cx="18.5" cy="4.5" r="0.496279899691358" fill="#FFFFFF" stroke="#00d084" stroke-width="0.28751543209876546"></circle><circle r="0.5430883487654321" fill="#FFFFFF" cx="19.5" cy="4.5" stroke-width="0.2798233024691358" stroke="#00d084"></circle><circle r="0.4729793595679012" fill="#FFFFFF" cx="21.5" cy="7.5" stroke="#00d084" stroke-width="0.2528564814814815"></circle><circle cx="20.5" cy="8.5" r="0.5823823302469135" fill="#FFFFFF" stroke="#00d084" stroke-width="0.1584807098765432"></circle><circle r="0.4297665895061728" fill="#FFFFFF" cx="9.5" cy="9.5" stroke="#00d084" stroke-width="0.1952770061728395"></circle><circle r="0.4830796682098765" fill="#FFFFFF" cx="22.5" cy="9.5" stroke="#00d084" stroke-width="0.16723302469135803"></circle><circle cx="25.5" cy="9.5" r="0.4484201388888889" fill="#FFFFFF" stroke="#00d084" stroke-width="0.21260725308641976"></circle><circle cx="30.5" cy="9.5" r="0.5692582947530864" fill="#FFFFFF" stroke="#00d084" stroke-width="0.2451574074074074"></circle><circle cx="16.5" cy="10.5" r="0.4449807098765432" fill="#FFFFFF" stroke="#00d084" stroke-width="0.18050385802469135"></circle><circle cx="25.5" cy="10.5" r="0.5717843364197531" fill="#FFFFFF" stroke="#00d084" stroke-width="0.3209282407407408"></circle><circle cx="12.5" cy="11.5" r="0.5292997685185186" fill="#FFFFFF" stroke="#00d084" stroke-width="0.2817554012345679"></circle><circle cx="26.5" cy="11.5" r="0.6349363425925927" fill="#FFFFFF" stroke="#00d084" stroke-width="0.24237577160493828"></circle><circle r="0.5331114969135803" fill="#FFFFFF" cx="31.5" cy="11.5" stroke="#00d084" stroke-width="0.20406404320987653"></circle><circle r="0.6243200231481482" fill="#FFFFFF" cx="1.5" cy="12.5" stroke="#00d084" stroke-width="0.26846604938271607"></circle><circle cx="5.5" cy="12.5" r="0.48224440586419753" fill="#FFFFFF" stroke="#00d084" stroke-width="0.25221296296296297"></circle><circle r="0.5065239197530864" fill="#FFFFFF" cx="16.5" cy="12.5" stroke="#00d084" stroke-width="0.1912199074074074"></circle><circle r="0.519104938271605" fill="#FFFFFF" cx="27.5" cy="12.5" stroke="#00d084" stroke-width="0.2040625"></circle><circle r="0.44426697530864195" fill="#FFFFFF" cx="23.5" cy="13.5" stroke="#00d084" stroke-width="0.2697476851851852"></circle><circle fill="#FFFFFF" cx="31.5" cy="13.5" r="0.4451224922839506" stroke="#00d084" stroke-width="0.1554783950617284"></circle><circle r="0.4963888888888889" fill="#FFFFFF" cx="0.5" cy="15.5" stroke="#00d084" stroke-width="0.19848225308641976"></circle><circle r="0.4838406635802469" fill="#FFFFFF" cx="8.5" cy="15.5" stroke="#00d084" stroke-width="0.2496473765432099"></circle><circle cx="20.5" cy="15.5" r="0.5116994598765432" fill="#FFFFFF" stroke="#00d084" stroke-width="0.18137885802469136"></circle><circle cx="25.5" cy="15.5" r="0.49343074845679014" fill="#FFFFFF" stroke="#00d084" stroke-width="0.32755092592592594"></circle><circle cx="12.5" cy="17.5" r="0.4852170138888889" fill="#FFFFFF" stroke="#00d084" stroke-width="0.23079475308641978"></circle><circle cx="15.5" cy="17.5" r="0.5526186342592593" fill="#FFFFFF" stroke="#00d084" stroke-width="0.2727716049382716"></circle><circle cx="24.5" cy="17.5" r="0.5483236882716049" fill="#FFFFFF" stroke="#00d084" stroke-width="0.1749375"></circle><circle cx="4.5" cy="18.5" r="0.6085812114197531" fill="#FFFFFF" stroke="#00d084" stroke-width="0.15911574074074072"></circle><circle r="0.5699083719135802" fill="#FFFFFF" cx="31.5" cy="18.5" stroke="#00d084" stroke-width="0.22225154320987656"></circle><circle cx="13.5" cy="19.5" r="0.44872878086419754" fill="#FFFFFF" stroke="#00d084" stroke-width="0.16915046296296296"></circle><circle r="0.5631510416666667" fill="#FFFFFF" cx="2.5" cy="21.5" stroke="#00d084" stroke-width="0.16230864197530864"></circle><circle cx="17.5" cy="21.5" r="0.47806037808641977" fill="#FFFFFF" stroke="#00d084" stroke-width="0.2596990740740741"></circle><circle r="0.6278559027777778" fill="#FFFFFF" stroke="#00d084" stroke-width="0.29823919753086425" cx="19.5" cy="21.5"></circle><circle cx="22.5" cy="21.5" r="0.6242148919753087" fill="#FFFFFF" stroke="#00d084" stroke-width="0.20620601851851852"></circle><circle cx="24.5" cy="21.5" r="0.48442708333333334" fill="#FFFFFF" stroke="#00d084" stroke-width="0.293079475308642"></circle><circle cx="7.5" cy="22.5" r="0.4599623842592592" fill="#FFFFFF" stroke="#00d084" stroke-width="0.2361466049382716"></circle><circle r="0.476015625" fill="#FFFFFF" cx="17.5" cy="22.5" stroke="#00d084" stroke-width="0.1651003086419753"></circle><circle r="0.558954475308642" fill="#FFFFFF" cx="7.5" cy="23.5" stroke="#00d084" stroke-width="0.25649768518518523"></circle><circle r="0.6300549768518519" fill="#FFFFFF" cx="20.5" cy="25.5" stroke="#00d084" stroke-width="0.28110956790123454"></circle><circle r="0.5400501543209877" fill="#FFFFFF" stroke="#00d084" stroke-width="0.17322608024691358" cx="19.5" cy="26.5"></circle><circle cx="29.5" cy="26.5" r="0.4804755015432099" fill="#FFFFFF" stroke="#00d084" stroke-width="0.2301496913580247"></circle><circle cx="20.5" cy="27.5" r="0.6083613040123457" fill="#FFFFFF" stroke="#00d084" stroke-width="0.32282870370370376"></circle><circle r="0.5431520061728395" fill="#FFFFFF" cx="20.5" cy="28.5" stroke="#00d084" stroke-width="0.21348533950617282"></circle><circle r="0.6072029320987655" fill="#FFFFFF" stroke="#00d084" stroke-width="0.16361496913580245" cx="21.5" cy="29.5"></circle><circle r="0.5267554012345679" fill="#FFFFFF" cx="11.5" cy="30.5" stroke="#00d084" stroke-width="0.24962731481481482"></circle><circle cx="13.5" cy="30.5" r="0.6189120370370371" fill="#FFFFFF" stroke="#00d084" stroke-width="0.1687229938271605"></circle><circle cx="10.5" cy="31.5" r="0.602691936728395" fill="#FFFFFF" stroke="#00d084" stroke-width="0.2582006172839506"></circle><circle r="0.5132301311728396" fill="#FFFFFF" cx="25.5" cy="31.5" stroke="#00d084" stroke-width="0.23079783950617283"></circle><circle cx="30.5" cy="31.5" r="0.504242862654321" fill="#FFFFFF" stroke="#00d084" stroke-width="0.31833024691358025"></circle><circle cx="18.5" cy="32.5" r="0.4729938271604938" fill="#FFFFFF" stroke="#00d084" stroke-width="0.18050694444444446"></circle><circle cx="27.5" cy="32.5" r="0.6224604552469136" fill="#FFFFFF" stroke="#00d084" stroke-width="0.2917932098765432"></circle><path d="M32.048565,-1.29480038e-15 L67.951435,1.29480038e-15 C79.0954192,-7.52316311e-16 83.1364972,1.16032014 87.2105713,3.3391588 C91.2846454,5.51799746 94.4820025,8.71535463 96.6608412,12.7894287 C98.8396799,16.8635028 100,20.9045808 100,32.048565 L100,67.951435 C100,79.0954192 98.8396799,83.1364972 96.6608412,87.2105713 C94.4820025,91.2846454 91.2846454,94.4820025 87.2105713,96.6608412 C83.1364972,98.8396799 79.0954192,100 67.951435,100 L32.048565,100 C20.9045808,100 16.8635028,98.8396799 12.7894287,96.6608412 C8.71535463,94.4820025 5.51799746,91.2846454 3.3391588,87.2105713 C1.16032014,83.1364972 5.01544207e-16,79.0954192 -8.63200256e-16,67.951435 L8.63200256e-16,32.048565 C-5.01544207e-16,20.9045808 1.16032014,16.8635028 3.3391588,12.7894287 C5.51799746,8.71535463 8.71535463,5.51799746 12.7894287,3.3391588 C16.8635028,1.16032014 20.9045808,7.52316311e-16 32.048565,-1.29480038e-15 Z" stroke="#FFF" stroke-width="13.774104683195592" fill="#FFF" transform="translate(12.870000000000001,12.870000000000001) scale(0.0726,0.0726)"></path><g><defs><path id="defs-path67" d="M32.048565,-1.29480038e-15 L67.951435,1.29480038e-15 C79.0954192,-7.52316311e-16 83.1364972,1.16032014 87.2105713,3.3391588 C91.2846454,5.51799746 94.4820025,8.71535463 96.6608412,12.7894287 C98.8396799,16.8635028 100,20.9045808 100,32.048565 L100,67.951435 C100,79.0954192 98.8396799,83.1364972 96.6608412,87.2105713 C94.4820025,91.2846454 91.2846454,94.4820025 87.2105713,96.6608412 C83.1364972,98.8396799 79.0954192,100 67.951435,100 L32.048565,100 C20.9045808,100 16.8635028,98.8396799 12.7894287,96.6608412 C8.71535463,94.4820025 5.51799746,91.2846454 3.3391588,87.2105713 C1.16032014,83.1364972 5.01544207e-16,79.0954192 -8.63200256e-16,67.951435 L8.63200256e-16,32.048565 C-5.01544207e-16,20.9045808 1.16032014,16.8635028 3.3391588,12.7894287 C5.51799746,8.71535463 8.71535463,5.51799746 12.7894287,3.3391588 C16.8635028,1.16032014 20.9045808,7.52316311e-16 32.048565,-1.29480038e-15 Z" fill="#FFF" transform="translate(12.870000000000001,12.870000000000001) scale(0.0726,0.0726)"></path>                    </defs><clipPath id="clip-path68"><use xlink:href="#defs-path67" overflow="visible"></use></clipPath><g clip-path="url(#clip-path68)"><g transform="translate(12.870000000000001,12.870000000000001) scale(0.0726,0.0726)"><g><rect width="100" height="100" fill="#07c160"></rect><path d="M48.766,39.21a2.941,2.941,0,1,1,2.918-2.94,2.929,2.929,0,0,1-2.918,2.94m-16.455,0a2.941,2.941,0,1,1,2.918-2.941,2.93,2.93,0,0,1-2.918,2.941m8.227-17.039c-13.632,0-24.682,9.282-24.682,20.732,0,6.247,3.324,11.87,8.528,15.67a1.662,1.662,0,0,1,.691,1.352,1.984,1.984,0,0,1-.087.528c-.415,1.563-1.081,4.064-1.112,4.181a2.449,2.449,0,0,0-.132.607.825.825,0,0,0,.823.828.914.914,0,0,0,.474-.154l5.405-3.144a2.57,2.57,0,0,1,1.31-.382,2.442,2.442,0,0,1,.725.109,28.976,28.976,0,0,0,8.057,1.137c.455,0,.907-.012,1.356-.032a16.084,16.084,0,0,1-.829-5.082c0-10.442,10.078-18.908,22.511-18.908.45,0,.565.015,1.008.037-1.858-9.9-11.732-17.479-24.046-17.479" fill="#fff"></path><path d="M70.432,55.582A2.589,2.589,0,1,1,73,52.994a2.578,2.578,0,0,1-2.568,2.588m-13.713,0a2.589,2.589,0,1,1,2.568-2.588,2.578,2.578,0,0,1-2.568,2.588m20.319,16a16.3,16.3,0,0,0,7.106-13.058c0-9.542-9.208-17.276-20.568-17.276s-20.57,7.734-20.57,17.276S52.216,75.8,63.576,75.8a24.161,24.161,0,0,0,6.714-.947,2.079,2.079,0,0,1,.6-.091,2.138,2.138,0,0,1,1.092.319l4.5,2.62a.78.78,0,0,0,.4.129.688.688,0,0,0,.685-.691,2.081,2.081,0,0,0-.11-.5l-.927-3.486a1.641,1.641,0,0,1-.073-.44,1.385,1.385,0,0,1,.577-1.126" fill="#fff"></path></g></g></g></g></svg>